<svg id="Capa_1" enable-background="new 0 0 512 512" height="512" viewBox="0 0 512 512" width="512" xmlns="http://www.w3.org/2000/svg"><g><g><path clip-rule="evenodd" d="m428.144 122.574 44.704-44.757-38.897-38.919-44.733 44.729z" fill="#99ebfa" fill-rule="evenodd"/></g><g><path clip-rule="evenodd" d="m472.848 77.817 20.851-20.862c10.709-10.686 10.68-28.204 0-38.918-10.709-10.715-28.217-10.715-38.897 0l-20.851 20.862z" fill="#e6d5cf" fill-rule="evenodd"/></g><g><path clip-rule="evenodd" d="m306.495 244.261 121.649-121.687-38.926-38.947-121.62 121.716 15.609 15.618z" fill="#e6d5cf" fill-rule="evenodd"/></g><g><path clip-rule="evenodd" d="m242.809 269.064 71.08 71.119 22.126-22.109c12.154-12.16 12.154-32.087 0-44.247l-29.52-29.564-23.287-23.3-15.61-15.618-29.548-29.536c-12.154-12.16-32.07-12.16-44.223 0l-22.097 22.138z" fill="#99ebfa" fill-rule="evenodd"/></g><g><path clip-rule="evenodd" d="m129.829 219.658 156.013 156.099c3.428-.709 6.856-1.077 10.255-1.162l17.791-34.411-71.08-71.119-71.08-71.119z" fill="#33d6f5" fill-rule="evenodd"/></g><g><path clip-rule="evenodd" d="m90.478 240.038 159.668 159.784c7.989-11.99 20.483-20.947 35.696-24.065l-156.013-156.099z" fill="#99ebfa" fill-rule="evenodd"/></g><g><path clip-rule="evenodd" d="m250.345 462.919c12.465 18.425 35.186 28.487 58.303 23.725 10.057-2.069 18.924-6.661 26.064-13.011 10.114 10.233 25.044 15.307 40.2 12.189 23.797-4.904 39.095-28.175 34.194-51.957-4.901-23.81-28.132-39.117-51.929-34.241-3.796.794-7.366 2.041-10.68 3.685-10.142-17.914-29.492-29.168-50.399-28.714-3.4.085-6.828.454-10.255 1.162-15.213 3.118-27.707 12.075-35.696 24.065-8.074 12.132-11.502 27.382-8.329 42.802 1.557 7.483 4.504 14.342 8.527 20.295z" fill="#ffe6b4" fill-rule="evenodd"/></g><g><path clip-rule="evenodd" d="m431.147 349.225c18.584 0 33.628-15.08 33.628-33.646 0-18.595-15.043-33.646-33.628-33.646-18.556 0-33.599 15.051-33.599 33.646-.001 18.566 15.042 33.646 33.599 33.646z" fill="#ffe6b4" fill-rule="evenodd"/></g><g><path clip-rule="evenodd" d="m110.111 401.834 61.703 61.737 27.99 27.977c14.675 14.683 27.877 15.193 39.265-6.831l11.275-21.798c-4.023-5.953-6.969-12.812-8.527-20.295-3.173-15.42.255-30.67 8.329-42.802l-159.668-159.784-63.204 32.767c-10.397 5.386-15.78 11.197-16.998 17.347v5.669c.963 5.187 4.533 10.63 10.17 16.27l27.962 28.005z" fill="#ffcd69" fill-rule="evenodd"/></g><g><path clip-rule="evenodd" d="m477.24 481.513c13.627 0 24.675-11.055 24.76-24.661v-.142-.113c-.085-13.634-11.134-24.661-24.76-24.661-13.683 0-24.789 11.111-24.789 24.774 0 13.692 11.105 24.803 24.789 24.803z" fill="#ffe6b4" fill-rule="evenodd"/></g><g><path d="m355.13 389.835c-1.602.335-3.183.739-4.739 1.212-9.654-12.82-23.429-21.517-38.672-24.894l10.338-19.996 21.031-21.015c16.088-16.097 16.088-42.289 0-58.386l-22.469-22.481 114.297-114.36c.098-.091.201-.173.297-.268.097-.097.181-.203.274-.303l44.428-44.453c.001-.001.002-.002.003-.002.001-.001.001-.002.002-.003l20.842-20.854c14.626-14.594 14.634-38.395.01-53.065-7.069-7.073-16.489-10.967-26.531-10.967-.008 0-.018 0-.026 0-10.037.007-19.446 3.905-26.485 10.967l-20.847 20.858s0 0-.001 0l-.001.001-44.438 44.462c-.097.09-.2.172-.295.266-.097.097-.18.201-.272.301l-25.2 25.214c-3.904 3.907-3.903 10.238.003 14.143 3.906 3.903 10.238 3.902 14.142-.004l18.41-18.42 24.759 24.772-107.51 107.569-24.759-24.772 25.642-25.656c3.904-3.907 3.902-10.238-.004-14.143-3.908-3.904-10.239-3.903-14.143.004l-25.634 25.648-22.461-22.473c-7.767-7.771-18.132-12.051-29.185-12.051s-21.417 4.28-29.189 12.056l-21 21.039-40.495 20.985c-.043.022-.086.044-.128.066l-39.005 20.213c-.172.083-.341.17-.509.263l-62.935 32.615c-13.512 6.995-20.835 15.262-22.39 25.275-1.504 9.689 2.899 19.77 13.085 29.961l27.697 27.721c.103.112.213.214.32.321l61.649 61.702 61.485 61.499c.153.163.311.322.476.476l27.731 27.738c8.891 8.895 17.696 13.383 26.231 13.383 1.246 0 2.486-.096 3.719-.287 10.013-1.554 18.279-8.882 25.27-22.402l4.542-8.78c2.525 2.283 5.236 4.395 8.132 6.303 11.001 7.249 23.598 11 36.463 11 4.51 0 9.056-.462 13.574-1.395 8.535-1.756 16.604-5.149 23.734-9.941 12.17 8.815 27.511 12.208 42.532 9.118 14.125-2.911 26.269-11.149 34.195-23.198 7.923-12.044 10.685-26.453 7.775-40.57-5.992-29.14-34.579-47.991-63.765-42.012zm119.098-369.835h.012c4.697 0 9.096 1.813 12.377 5.096 6.833 6.855 6.842 17.971.009 24.789l-13.778 13.785-24.759-24.772 13.795-13.803c3.273-3.282 7.656-5.092 12.344-5.095zm-70.857 63.641 30.58-30.597 24.759 24.772-30.581 30.597zm-153.96 301.27-142.194-142.271 20.714-10.734 139.61 139.686c-6.847 3.415-12.952 7.947-18.13 13.319zm-79.581-174.72 131.818 131.891-11.858 22.938c-.162.018-.324.036-.486.055l-142.745-142.824zm31.069-27.315c3.989-3.991 9.33-6.189 15.039-6.189 5.708 0 11.049 2.198 15.039 6.189l97.965 98.018c8.297 8.301 8.297 21.809.005 30.105l-15.053 15.042-128.031-128.101zm29.287 297.247c-3.639 7.038-7.493 11.349-10.572 11.826-2.903.455-7.543-2.273-12.739-7.472l-22.81-22.816 21.841-42.16c2.541-4.904.625-10.939-4.279-13.479-4.905-2.54-10.939-.625-13.479 4.279l-18.919 36.52-44.96-44.971 31.653-31.763c3.898-3.912 3.887-10.244-.025-14.142s-10.244-3.888-14.142.025l-31.624 31.734-44.984-45.023 36.509-18.935c4.903-2.542 6.816-8.578 4.273-13.481-2.542-4.902-8.58-6.817-13.481-4.273l-42.128 21.849-22.799-22.819c-5.198-5.2-7.92-9.85-7.469-12.756.479-3.083 4.787-6.94 11.825-10.583l56.713-29.39 149.117 149.199c-6.447 12.897-8.801 27.957-5.682 43.152 1.368 6.629 3.691 12.901 6.856 18.672zm164.23-18.697c-4.989 7.584-12.633 12.77-21.52 14.601-11.322 2.333-22.939-1.193-31.073-9.423-3.738-3.782-9.783-3.978-13.758-.442-6.008 5.343-13.42 9.04-21.441 10.69-12.176 2.515-24.604.129-34.995-6.717-10.393-6.848-17.502-17.336-20.017-29.521-5.171-25.192 11.087-49.892 36.242-55.061.001 0 .002 0 .004-.001 3.166-.652 6.334-.968 9.469-.968 16.535 0 32.059 8.809 40.467 23.654 2.617 4.62 8.389 6.389 13.145 4.03 2.597-1.288 5.384-2.249 8.245-2.847 18.349-3.756 36.35 8.111 40.127 26.464 1.832 8.887.094 17.959-4.895 25.541z"/><path d="m477.24 421.937c-19.183 0-34.789 15.6-34.789 34.774 0 19.19 15.606 34.802 34.789 34.802 19.167 0 34.76-15.612 34.76-34.802 0-19.174-15.593-34.774-34.76-34.774zm0 49.576c-8.155 0-14.789-6.64-14.789-14.802 0-8.146 6.634-14.774 14.789-14.774 8.139 0 14.76 6.627 14.76 14.774 0 8.162-6.622 14.802-14.76 14.802z"/><path d="m474.774 315.579c0-24.066-19.571-43.646-43.628-43.646-24.041 0-43.599 19.58-43.599 43.646s19.559 43.646 43.599 43.646c24.057 0 43.628-19.58 43.628-43.646zm-43.628 23.646c-13.013 0-23.599-10.607-23.599-23.646s10.586-23.646 23.599-23.646c13.028 0 23.628 10.607 23.628 23.646s-10.599 23.646-23.628 23.646z"/><path d="m331.999 150.893c2.567 0 5.136-.98 7.092-2.936 3.905-3.905 3.905-10.237 0-14.143-3.905-3.905-10.237-3.905-14.143 0l-.028.028c-3.905 3.905-3.891 10.223.014 14.128 1.95 1.95 4.506 2.923 7.065 2.923z"/></g></g></svg>